<?xml version="1.0" standalone="no"?>
<!DOCTYPE svg PUBLIC "-//W3C//DTD SVG 20010904//EN"
 "http://www.w3.org/TR/2001/REC-SVG-20010904/DTD/svg10.dtd">
<svg version="1.0" xmlns="http://www.w3.org/2000/svg"
 width="700.000000pt" height="700.000000pt" viewBox="0 0 700.000000 700.000000"
 preserveAspectRatio="xMidYMid meet">
<metadata>
Created by potrace 1.14, written by Peter Selinger 2001-2017
</metadata>
<g transform="translate(0.000000,700.000000) scale(0.100000,-0.100000)"
fill="#000000" stroke="none">
<path d="M3420 6726 c-52 -28 -183 -98 -290 -155 -107 -57 -222 -118 -255
-136 -33 -18 -109 -58 -170 -90 -60 -32 -137 -72 -170 -90 -33 -18 -103 -55
-155 -82 -52 -28 -126 -68 -165 -88 -182 -97 -241 -128 -322 -171 -49 -26
-115 -61 -148 -79 -33 -18 -105 -56 -160 -85 -55 -29 -127 -67 -160 -85 -33
-18 -103 -55 -155 -83 -52 -27 -124 -65 -160 -85 -172 -92 -590 -313 -627
-331 -28 -14 -43 -28 -44 -41 0 -11 -1 -748 -1 -1637 -1 -1641 -1 -1648 32
-1648 4 0 52 -24 106 -53 54 -30 144 -78 199 -107 55 -29 132 -70 171 -91 39
-22 73 -39 76 -39 2 0 4 734 3 1631 0 897 2 1634 5 1639 5 8 64 40 245 135 61
32 128 68 150 80 22 12 94 51 160 85 66 35 149 78 185 98 172 92 212 113 305
162 55 29 123 65 150 80 48 26 146 78 345 183 142 75 239 126 295 157 28 15
100 53 160 85 106 56 157 83 330 175 44 24 101 54 126 67 l46 24 64 -34 c35
-19 105 -55 154 -82 50 -26 128 -68 175 -93 47 -25 118 -62 157 -83 74 -39
333 -176 478 -254 203 -109 570 -303 675 -358 52 -27 113 -59 135 -72 22 -12
99 -53 170 -90 72 -37 139 -73 150 -80 11 -7 88 -47 170 -90 83 -43 155 -82
161 -86 8 -6 11 -393 11 -1329 l0 -1321 -41 -23 c-23 -13 -84 -46 -136 -73
-91 -49 -216 -115 -365 -195 -38 -20 -97 -51 -130 -69 -33 -17 -107 -56 -165
-86 -58 -31 -118 -63 -135 -73 -16 -10 -84 -46 -150 -80 -121 -64 -204 -108
-337 -179 -40 -21 -122 -64 -183 -96 -60 -32 -123 -65 -140 -75 -16 -10 -82
-45 -145 -78 -164 -85 -299 -157 -420 -221 -58 -31 -116 -62 -130 -69 -23 -12
-34 -8 -115 36 -50 26 -162 86 -250 132 -88 45 -164 86 -170 90 -5 4 -66 36
-135 72 -69 36 -150 79 -180 95 -30 17 -98 53 -150 80 -52 28 -120 64 -150 80
-30 16 -87 46 -126 67 l-71 37 0 1320 0 1320 56 28 c31 15 81 41 111 58 30 17
105 56 165 88 61 32 133 70 160 85 28 15 100 53 160 85 61 32 133 70 160 85
28 15 100 53 160 85 61 32 164 87 230 122 l119 63 51 -24 c27 -14 88 -46 135
-71 77 -42 214 -115 375 -200 33 -17 69 -36 80 -43 21 -11 252 -134 410 -217
50 -26 132 -70 183 -97 l92 -50 -2 -690 -3 -690 -85 -45 c-79 -41 -147 -77
-340 -180 -41 -22 -120 -64 -175 -93 -117 -61 -246 -130 -330 -175 -33 -18
-109 -58 -170 -90 -60 -31 -134 -71 -163 -87 l-53 -30 -75 38 -74 39 0 685 0
685 63 33 c34 18 98 51 142 75 44 23 181 96 303 161 182 96 221 121 210 131
-7 7 -76 45 -153 85 -77 40 -158 83 -180 95 -22 12 -85 46 -139 75 l-99 52
-71 -38 c-39 -20 -127 -67 -196 -104 -69 -37 -179 -95 -245 -130 -66 -34 -144
-76 -173 -92 l-52 -30 2 -1000 3 -1000 50 -27 c28 -15 138 -74 245 -131 107
-57 222 -118 255 -135 33 -18 87 -47 121 -65 l61 -32 64 35 c35 19 107 57 159
85 52 27 196 104 320 170 124 65 275 145 335 177 61 32 133 70 160 85 28 15
95 51 150 80 179 95 269 142 330 175 61 33 135 72 301 160 l92 49 0 1000 c0
636 -4 1005 -10 1013 -5 6 -42 29 -81 49 -40 20 -106 55 -147 77 -41 22 -111
59 -155 82 -95 50 -210 111 -395 210 -74 40 -180 96 -235 125 -101 53 -201
106 -310 165 -33 18 -114 61 -180 96 -66 35 -160 85 -210 111 -49 26 -112 60
-140 74 l-50 26 -185 -100 c-102 -54 -234 -125 -295 -157 -60 -32 -141 -75
-180 -95 -38 -21 -110 -59 -160 -85 -49 -26 -112 -60 -140 -75 -27 -15 -113
-60 -190 -100 -77 -40 -166 -88 -198 -106 -32 -19 -60 -34 -63 -34 -2 0 -62
-31 -132 -69 -70 -37 -176 -94 -237 -125 -60 -32 -115 -64 -120 -71 -14 -18
-14 -3260 0 -3273 11 -10 138 -78 440 -236 95 -50 210 -111 330 -175 137 -74
224 -120 330 -176 50 -26 122 -64 160 -85 98 -53 193 -103 315 -167 58 -31
128 -68 155 -83 28 -15 77 -42 110 -60 l61 -32 139 74 c77 41 147 78 155 81 8
4 42 22 75 40 33 18 110 59 170 91 61 32 133 71 160 86 28 15 104 55 170 90
66 34 147 77 180 95 62 33 156 84 305 163 114 60 274 145 660 350 47 25 119
63 160 85 41 22 98 52 125 67 28 15 95 51 150 80 208 109 295 155 530 280 55
30 102 57 105 61 7 9 7 3276 0 3282 -5 4 -205 111 -445 237 -55 29 -156 83
-225 120 -69 37 -174 93 -235 125 -187 99 -427 226 -500 265 -38 21 -119 64
-180 95 -60 32 -168 90 -240 128 -71 38 -245 130 -385 204 -140 75 -320 170
-400 213 -80 43 -190 101 -245 130 -55 29 -128 68 -162 86 -33 19 -65 34 -70
33 -4 -1 -51 -24 -103 -53z"/>
</g>
</svg>
